<?xml version="1.0" standalone="no"?>
<!DOCTYPE svg PUBLIC "-//W3C//DTD SVG 20010904//EN"
 "http://www.w3.org/TR/2001/REC-SVG-20010904/DTD/svg10.dtd">
<svg version="1.0" xmlns="http://www.w3.org/2000/svg"
 width="443.000000pt" height="443.000000pt" viewBox="0 0 443.000000 443.000000"
 preserveAspectRatio="xMidYMid meet">
<metadata>
Created by potrace 1.14, written by Peter Selinger 2001-2017
</metadata>
<g transform="translate(0.000000,443.000000) scale(0.100000,-0.100000)"
fill="#000000" stroke="none">
<path d="M2667 4293 c-1 -1 -56 -4 -122 -8 -66 -3 -151 -8 -190 -11 -156 -12
-194 -14 -290 -14 -76 0 -114 -6 -157 -21 -32 -12 -58 -25 -58 -30 0 -5 -5 -9
-12 -9 -18 0 -94 -84 -114 -125 -15 -33 -56 -55 -102 -55 -17 0 -128 -37 -172
-57 -61 -28 -123 -75 -206 -158 -66 -65 -89 -96 -121 -165 -22 -47 -43 -101
-47 -120 -3 -19 -8 -46 -11 -60 -15 -77 -23 -354 -13 -450 2 -18 -1 -24 -12
-22 -41 10 -223 -3 -249 -17 -29 -16 -43 -46 -43 -96 0 -47 17 -82 44 -91 12
-3 18 -15 18 -33 0 -34 56 -149 85 -174 49 -43 97 -59 189 -63 50 -3 87 -1 81
3 -21 16 -3 180 20 189 7 3 33 -15 56 -40 78 -80 183 -132 309 -152 25 -4 153
-8 285 -9 132 0 246 -4 252 -8 13 -8 12 -41 -1 -54 -4 -5 -95 -8 -202 -9 -132
-1 -199 -5 -207 -13 -6 -6 -16 -26 -21 -43 -7 -20 -19 -34 -31 -36 -16 -3 -18
-1 -7 9 16 17 16 70 -1 93 -9 12 -28 19 -57 20 -43 1 -54 -8 -72 -56 -2 -4
-20 -2 -40 5 -25 9 -90 13 -188 13 -82 -1 -150 3 -150 7 0 5 -4 5 -10 2 -5 -3
-134 -7 -286 -9 -333 -4 -309 7 -306 -141 1 -39 7 -64 16 -70 9 -7 143 -10
398 -8 210 1 392 1 404 -2 17 -4 44 -42 46 -65 2 -14 62 -39 97 -41 27 -2 37
-6 32 -13 -5 -6 -45 -87 -89 -181 -44 -93 -102 -217 -130 -275 -27 -58 -64
-138 -82 -179 -17 -40 -42 -92 -55 -115 -12 -22 -51 -95 -85 -161 -35 -66 -80
-151 -100 -190 -60 -113 -90 -174 -89 -181 0 -4 -3 -10 -8 -13 -9 -6 -46 -78
-49 -96 -1 -6 10 -10 25 -10 19 0 26 -5 26 -20 0 -17 -9 -21 -65 -27 -89 -10
-323 -56 -389 -76 -58 -18 -78 -43 -67 -86 5 -21 18 -29 69 -45 57 -17 82 -22
177 -36 14 -2 36 -6 50 -9 53 -10 224 -32 320 -41 19 -1 62 -5 95 -9 108 -10
208 -17 355 -23 218 -9 1390 -10 1390 -1 0 4 11 3 24 -2 13 -5 26 -7 28 -4 3
2 60 6 129 10 185 8 350 20 418 29 20 3 56 7 81 9 103 9 256 36 412 73 71 16
75 24 35 65 -7 7 -26 37 -42 66 -15 28 -31 52 -34 53 -3 0 -46 2 -96 4 -49 2
-100 6 -112 9 -28 6 -42 -13 -19 -26 9 -5 16 -16 16 -24 0 -9 5 -12 13 -8 6 4
9 4 5 -1 -4 -4 -3 -15 2 -25 18 -34 21 -77 5 -77 -8 0 -13 2 -11 5 3 2 -6 22
-20 43 -13 21 -24 43 -24 49 0 5 -4 10 -10 10 -5 0 -10 9 -10 20 0 11 -4 20
-10 20 -5 0 -10 5 -10 11 0 6 -7 17 -15 25 -21 21 -19 35 5 41 25 7 23 31 -7
88 -11 22 -73 144 -138 270 -117 228 -181 382 -164 399 4 5 44 8 87 7 58 -1
81 2 84 11 2 7 4 58 3 114 -1 74 2 101 12 101 6 0 10 -4 7 -9 -7 -11 3 -10 27
2 20 11 25 39 10 68 -5 9 -13 28 -19 42 -5 14 -19 46 -31 72 -12 26 -21 50
-21 53 0 2 -16 39 -36 82 -19 43 -42 93 -50 112 -14 32 -17 33 -52 26 -43 -8
-350 -12 -362 -5 -11 7 -67 133 -79 177 -6 21 -11 53 -13 71 -1 17 -12 44 -24
59 -20 26 -25 27 -105 25 -46 -1 -98 -6 -114 -10 -48 -14 -205 -13 -206 1 -1
7 -3 22 -4 35 -1 13 5 26 14 30 19 10 92 9 107 -1 6 -3 14 -4 18 0 8 9 67 10
72 1 3 -4 15 -3 28 2 12 4 29 4 36 0 8 -5 18 -6 23 -3 5 3 79 7 165 9 213 4
209 3 257 89 56 100 96 238 111 385 3 30 7 69 10 85 5 39 6 360 0 405 -2 19
-7 62 -11 95 -6 51 -25 177 -39 250 -17 93 -75 259 -112 322 -36 63 -111 131
-154 143 -28 7 -216 10 -223 3z m-798 -2059 c42 -4 42 -4 46 -50 3 -34 20 -57
47 -66 10 -4 12 -27 5 -78 -4 -32 -7 -49 -21 -130 -3 -14 -9 -47 -15 -75 -5
-27 -7 -53 -5 -57 3 -5 1 -8 -4 -8 -6 0 -9 -6 -9 -12 1 -7 -2 -35 -6 -61 l-8
-48 -42 1 c-23 1 -113 0 -200 -2 -86 -2 -157 1 -157 5 0 11 110 250 122 265 6
6 8 12 6 12 -3 0 15 37 39 83 23 45 60 117 80 160 35 72 40 77 63 71 14 -3 40
-8 59 -10z m791 7 c0 -5 13 -38 29 -73 38 -83 42 -96 46 -170 4 -55 46 -199
69 -237 13 -20 0 -25 -87 -28 -129 -5 -137 -6 -137 -15 0 -8 17 -12 35 -8 38
8 55 9 121 11 41 1 77 -1 80 -4 3 -3 8 -19 10 -36 5 -28 3 -31 -18 -27 -13 3
-25 5 -28 6 -3 2 -9 1 -15 0 -5 -1 -48 -3 -95 -4 -47 -1 -91 -5 -98 -9 -8 -6
-15 1 -22 18 -11 28 -5 49 11 40 5 -4 9 -1 9 4 0 6 -7 11 -15 11 -14 0 -27 35
-40 110 -9 52 -11 63 -18 90 -45 186 -45 185 -11 188 37 3 52 18 60 61 10 55
21 69 57 74 17 2 38 5 45 5 6 1 12 -2 12 -7z m-454 -159 c-6 -35 -11 -68 -22
-122 -2 -14 -7 -41 -10 -60 -3 -19 -8 -39 -11 -43 -2 -4 -6 -20 -8 -35 -3 -15
-7 -38 -10 -52 -2 -14 -10 -48 -15 -77 -12 -53 -30 -70 -64 -57 -20 8 -21 37
-1 54 8 7 12 17 8 23 -8 13 -4 87 5 101 3 6 7 24 8 40 1 17 5 44 8 60 3 16 9
50 13 75 8 51 10 60 13 64 1 1 3 10 5 20 6 29 21 42 55 44 32 2 32 2 26 -35z
m139 -229 c5 -21 10 -42 11 -48 16 -55 24 -144 14 -150 -12 -8 -36 102 -44
207 -4 47 9 41 19 -9z m-503 -441 c4 -4 3 -23 -2 -42 -8 -29 -54 -239 -74
-340 -21 -105 -65 -302 -68 -306 -5 -4 -59 -9 -213 -19 -49 -3 -115 -8 -145
-10 -30 -3 -80 -8 -110 -10 -30 -2 -85 -7 -121 -11 -37 -3 -69 -2 -72 3 -5 9
12 48 110 248 35 71 63 135 63 141 0 7 4 14 9 16 5 2 20 26 33 53 14 28 49 97
78 155 30 58 53 108 52 112 -2 9 28 16 78 20 67 5 375 -3 382 -10z m634 6 c5
-6 28 -95 39 -155 3 -15 12 -55 20 -88 9 -33 17 -69 20 -80 2 -11 11 -51 19
-90 9 -38 18 -81 21 -95 3 -14 11 -49 18 -78 8 -29 11 -55 7 -57 -10 -6 -801
-7 -807 -1 -3 3 2 37 11 76 10 38 19 81 22 95 2 14 6 35 8 48 2 12 11 51 20
87 13 53 30 131 61 270 2 8 4 25 4 38 1 13 9 26 20 30 23 8 509 8 517 0z m611
-110 c29 -62 70 -151 92 -198 22 -47 48 -105 59 -130 11 -25 29 -66 41 -92 11
-26 21 -51 21 -55 0 -5 5 -14 12 -21 6 -6 24 -39 39 -74 19 -44 24 -65 16 -70
-6 -4 -16 -3 -22 1 -10 7 -100 14 -202 15 -29 1 -53 4 -53 7 0 3 -21 6 -47 7
-92 4 -197 14 -204 18 -4 2 -10 0 -14 -6 -4 -6 -11 -8 -16 -4 -6 3 -25 8 -42
11 -37 6 -40 8 -43 31 -1 9 -11 60 -23 112 -12 52 -24 109 -27 125 -3 17 -8
37 -11 45 -3 8 -7 22 -8 30 -3 18 -9 48 -24 110 -5 25 -13 61 -16 80 -3 19 -8
43 -11 52 -3 9 -9 40 -13 67 -7 46 -6 50 13 53 12 2 113 2 226 1 l205 -2 52
-113z"/>
<path d="M1335 2104 c-15 -16 -15 -18 2 -36 12 -11 26 -16 36 -12 22 8 21 16
-2 43 -18 20 -20 21 -36 5z"/>
</g>
</svg>
